<?xml version="1.0" encoding="UTF-8" standalone="no"?>
<!DOCTYPE svg PUBLIC "-//W3C//DTD SVG 1.1//EN" "http://www.w3.org/Graphics/SVG/1.1/DTD/svg11.dtd">
<svg width="100%" height="100%" viewBox="0 0 1125 924" version="1.1" xmlns="http://www.w3.org/2000/svg" xmlns:xlink="http://www.w3.org/1999/xlink" xml:space="preserve" xmlns:serif="http://www.serif.com/" style="fill-rule:evenodd;clip-rule:evenodd;stroke-linecap:round;stroke-linejoin:round;stroke-miterlimit:1.5;">
    <g id="Artboard1" transform="matrix(1,0,0,0.378942,0,0)">
        <rect x="0" y="0" width="1125" height="2436" style="fill:none;"/>
        <clipPath id="_clip1">
            <rect x="0" y="0" width="1125" height="2436"/>
        </clipPath>
        <g clip-path="url(#_clip1)">
            <g transform="matrix(0.84755,0,0,2.5474,120.941,-3776.5)">
                <path d="M235.1,2359.17C235.1,2359.17 592.049,2281.16 540.043,1541.26" style="fill:none;stroke:black;stroke-width:8.32px;"/>
            </g>
            <g transform="matrix(-0.809436,0,0,2.69231,1014.46,-4062.23)">
                <path d="M235.1,2359.17C235.1,2359.17 592.049,2281.16 540.043,1541.26" style="fill:none;stroke:black;stroke-width:8.2px;"/>
            </g>
            <g transform="matrix(1,0,0,2.63892,-33.0947,-3599.42)">
                <g transform="matrix(192,0,0,192,518.768,2132.24)">
                    <path d="M0.057,-0.032L0.343,-0.032L0.33,-0L0.136,-0C0.107,-0 0.069,0.002 0.024,0.006L0.057,-0.032ZM0.372,-0.133L0.382,-0.133L0.355,-0.065L0.085,-0.065L0.142,-0.13C0.164,-0.155 0.181,-0.175 0.193,-0.191C0.206,-0.207 0.215,-0.219 0.221,-0.229C0.233,-0.248 0.239,-0.268 0.239,-0.289C0.239,-0.315 0.229,-0.336 0.208,-0.353C0.188,-0.368 0.165,-0.376 0.14,-0.376C0.114,-0.376 0.093,-0.368 0.076,-0.352C0.06,-0.335 0.051,-0.313 0.051,-0.284C0.051,-0.272 0.053,-0.259 0.056,-0.247L0.039,-0.24C0.027,-0.258 0.021,-0.277 0.021,-0.297C0.021,-0.33 0.034,-0.358 0.06,-0.38C0.085,-0.403 0.114,-0.414 0.148,-0.414C0.185,-0.414 0.216,-0.401 0.242,-0.376C0.268,-0.351 0.281,-0.322 0.281,-0.291C0.281,-0.247 0.25,-0.195 0.189,-0.135L0.18,-0.126L0.152,-0.096L0.257,-0.096C0.292,-0.096 0.317,-0.099 0.333,-0.104C0.347,-0.11 0.361,-0.119 0.372,-0.133ZM0.083,-0.433C0.108,-0.46 0.141,-0.474 0.182,-0.474C0.222,-0.474 0.256,-0.461 0.284,-0.434C0.312,-0.407 0.326,-0.375 0.326,-0.338C0.326,-0.32 0.32,-0.303 0.31,-0.287C0.31,-0.334 0.294,-0.373 0.263,-0.402C0.231,-0.431 0.192,-0.445 0.147,-0.445C0.127,-0.445 0.105,-0.441 0.083,-0.433Z" style="fill-rule:nonzero;"/>
                </g>
                <g transform="matrix(192,0,0,192,594.799,2132.24)">
                    <path d="M0.086,-0.04L0.284,-0.04L0.284,-0.239L0.086,-0.04ZM0.284,0.083L0.284,-0L0.005,-0L0.005,-0.006L0.32,-0.322L0.32,0.078C0.32,0.117 0.318,0.144 0.314,0.16C0.311,0.175 0.302,0.19 0.289,0.203C0.275,0.216 0.251,0.23 0.217,0.245L0.211,0.232C0.26,0.214 0.284,0.165 0.284,0.083ZM0.353,0.059L0.353,-0.355L0.389,-0.391L0.389,-0.04L0.409,-0.04C0.427,-0.04 0.439,-0.042 0.447,-0.045C0.455,-0.049 0.467,-0.058 0.482,-0.073L0.491,-0.064C0.476,-0.042 0.457,-0.02 0.434,-0L0.389,-0L0.389,0.063C0.389,0.088 0.386,0.106 0.379,0.118C0.373,0.131 0.361,0.146 0.343,0.163C0.349,0.143 0.353,0.108 0.353,0.059Z" style="fill-rule:nonzero;"/>
                </g>
            </g>
            <g transform="matrix(1,0,0,2.63892,0,-3992.42)">
                <rect x="-3.654" y="2363.9" width="1137.04" height="92.68" style="stroke:black;stroke-width:7.55px;"/>
            </g>
        </g>
    </g>
</svg>
