<?xml version="1.0" encoding="UTF-8" standalone="no"?>
<!DOCTYPE svg PUBLIC "-//W3C//DTD SVG 1.1//EN" "http://www.w3.org/Graphics/SVG/1.1/DTD/svg11.dtd">
<svg width="100%" height="100%" viewBox="0 0 638 376" version="1.1" xmlns="http://www.w3.org/2000/svg" xmlns:xlink="http://www.w3.org/1999/xlink" xml:space="preserve" xmlns:serif="http://www.serif.com/" style="fill-rule:evenodd;clip-rule:evenodd;stroke-linecap:round;stroke-linejoin:round;stroke-miterlimit:1.5;">
    <path d="M506.075,176.725C506.075,176.725 527.445,176.725 527.813,199.494C527.813,199.494 528.624,219.538 505.412,220.79C505.412,220.79 482.569,221.011 482.937,198.242C482.937,198.242 482.79,177.462 506.075,176.725ZM505.928,185.936C505.928,185.936 518.529,186.82 517.497,199.421C517.497,199.421 518.013,210.99 505.633,211.874C505.633,211.874 492.959,211.727 492.885,198.389C492.885,198.389 493.769,186.009 505.928,185.936Z" style="stroke:black;stroke-width:1px;"/>
    <path d="M436.845,155.134L464.994,155.282C464.994,155.282 481.795,157.271 481.058,176.577C481.058,176.577 481.5,194.336 465.215,197.357L448.267,197.284L448.193,219.98L436.33,219.759L436.845,155.134ZM448.12,165.082L447.899,187.262L462.047,186.967C462.047,186.967 469.858,186.157 469.858,175.472C469.858,175.472 470.447,167.587 462.415,165.156L448.12,165.082Z" style="stroke:black;stroke-width:1px;"/>
    <path d="M264.216,178.162L274.12,178.071L274.302,184.886C274.302,184.886 279.209,176.163 288.931,176.89C288.931,176.89 301.652,176.526 302.652,188.43L302.833,219.778L293.202,219.869L292.838,190.883C292.838,190.883 292.566,186.158 286.023,185.885C286.023,185.885 278.573,184.795 274.575,195.971L274.393,219.778L263.943,219.505L264.216,178.162Z" style="stroke:black;stroke-width:1px;"/>
    <path d="M228.279,200.969L256.811,200.696C256.811,200.696 259.537,178.435 239.092,177.072C239.092,177.072 220.919,174.8 217.739,197.698C217.739,197.698 217.012,220.868 240.182,220.959C240.182,220.959 249.814,221.777 256.629,214.235L252.631,207.511C252.631,207.511 247.542,211.964 240.818,211.782C240.818,211.782 231.187,213.599 228.279,200.969ZM229.279,193.336L247.27,193.609C247.27,193.609 247.997,187.158 238.638,184.795C238.638,184.795 229.642,185.704 229.279,193.336Z" style="stroke:black;stroke-width:1px;"/>
    <g transform="matrix(1,0,0,1,133.425,-0.689523)">
        <path d="M228.279,200.969L256.811,200.696C256.811,200.696 259.537,178.435 239.092,177.072C239.092,177.072 220.919,174.8 217.739,197.698C217.739,197.698 217.012,220.868 240.182,220.959C240.182,220.959 249.814,221.777 256.629,214.235L252.631,207.511C252.631,207.511 247.542,211.964 240.818,211.782C240.818,211.782 231.187,213.599 228.279,200.969ZM229.279,193.336L247.27,193.609C247.27,193.609 247.997,187.158 238.638,184.795C238.638,184.795 229.642,185.704 229.279,193.336Z" style="stroke:black;stroke-width:1px;"/>
    </g>
    <path d="M201.202,177.799L211.378,177.98L211.288,219.869L201.02,219.869L201.202,177.799Z" style="stroke:black;stroke-width:1px;"/>
    <path d="M201.111,160.989L211.288,160.989L211.288,170.802L200.838,170.62L201.111,160.989Z" style="stroke:black;stroke-width:1px;"/>
    <path d="M188.98,189.974L193.705,183.16C193.705,183.16 189.889,176.799 178.077,176.708C178.077,176.708 157.087,176.163 155.815,198.516C155.815,198.516 155.542,220.777 177.441,220.777C177.441,220.777 185.891,222.322 194.705,214.053L190.707,206.603C190.707,206.603 186.164,211.873 177.441,211.691C177.441,211.691 165.81,211.418 166.173,198.516C166.173,198.516 165.083,187.885 177.531,185.795C177.531,185.795 184.619,185.522 188.98,189.974Z" style="stroke:black;stroke-width:1px;"/>
    <g transform="matrix(1,0,0,1,153.766,-0.689523)">
        <path d="M188.98,189.974L193.705,183.16C193.705,183.16 189.889,176.799 178.077,176.708C178.077,176.708 157.087,176.163 155.815,198.516C155.815,198.516 155.542,220.777 177.441,220.777C177.441,220.777 185.891,222.322 194.705,214.053L190.707,206.603C190.707,206.603 186.164,211.873 177.441,211.691C177.441,211.691 165.81,211.418 166.173,198.516C166.173,198.516 165.083,187.885 177.531,185.795C177.531,185.795 184.619,185.522 188.98,189.974Z" style="stroke:black;stroke-width:1px;"/>
    </g>
    <path d="M144.729,170.393L149.818,160.943C149.818,160.943 142.004,153.22 130.827,154.31C130.827,154.31 112.2,152.675 109.383,172.574C109.383,172.574 107.929,185.022 123.558,189.838C123.558,189.838 141.822,195.199 139.368,203.195C139.368,203.195 139.278,210.101 129.919,210.01C129.919,210.01 121.286,210.646 114.835,202.923L107.929,211.918C107.929,211.918 116.38,222.095 129.737,220.823C129.737,220.823 149.636,221.55 150.636,202.741C150.636,202.741 153.543,189.747 130.282,180.752C130.282,180.752 117.379,177.299 122.559,168.394C122.559,168.394 129.373,159.217 144.729,170.393Z" style="stroke:black;stroke-width:1px;"/>
    <path d="M422.66,189.178L427.229,182.03C427.229,182.03 422.366,176.577 413.081,176.946C413.081,176.946 398.564,175.988 397.312,189.178C397.312,189.178 396.722,198.094 407.775,201.263C407.775,201.263 421.408,204.726 415.513,210.621C415.513,210.621 410.207,215.19 400.628,207.158L395.617,214.527C395.617,214.527 402.986,221.969 411.976,221.085C411.976,221.085 427.745,221.453 427.082,208.484C427.082,208.484 427.892,198.536 416.397,195.736C416.397,195.736 406.965,193.378 407.481,188.883C407.481,188.883 408.144,184.904 413.302,185.199C413.302,185.199 419.123,184.978 422.66,189.178Z" style="stroke:black;stroke-width:1px;"/>
</svg>
